<svg xmlns="http://www.w3.org/2000/svg" xmlns:xlink="http://www.w3.org/1999/xlink" width="1920" zoomAndPan="magnify" viewBox="0 0 1440 1439.999935" height="1920" preserveAspectRatio="xMidYMid meet" version="1.0"><defs><clipPath id="82a884ae1c"><path d="M 0 167.507812 L 1440 167.507812 L 1440 1287 L 0 1287 Z M 0 167.507812 " clip-rule="nonzero"/></clipPath></defs><g clip-path="url(#82a884ae1c)"><path fill="#ffffff" d="M 59.535156 478.203125 L 215.816406 478.203125 L 269.769531 321.925781 L 424.1875 321.925781 L 370.234375 478.203125 L 524.652344 478.203125 L 578.605469 321.925781 L 733.023438 321.925781 L 786.976562 167.507812 L 943.253906 167.507812 L 889.300781 321.925781 L 1043.71875 321.925781 L 995.347656 459.597656 C 973.023438 440.996094 941.394531 431.691406 909.765625 429.832031 C 887.441406 427.972656 866.976562 429.832031 850.230469 435.414062 L 889.300781 321.925781 L 733.023438 321.925781 L 680.929688 478.203125 L 788.835938 478.203125 C 762.789062 517.273438 760.929688 576.808594 762.789062 632.621094 L 626.976562 632.621094 L 606.511719 688.4375 C 552.558594 675.414062 494.882812 675.414062 448.371094 701.457031 L 472.558594 632.621094 L 316.28125 632.621094 L 262.328125 787.039062 L 355.351562 787.039062 C 346.046875 796.34375 336.746094 805.644531 327.441406 814.945312 C 310.699219 833.550781 305.117188 855.878906 308.839844 880.0625 C 297.675781 893.085938 284.652344 904.25 273.488281 917.273438 C 264.1875 909.832031 254.886719 904.25 243.722656 900.527344 L 238.140625 900.527344 C 232.558594 898.667969 228.839844 898.667969 223.257812 896.808594 L 262.328125 787.039062 L 107.910156 787.039062 L 161.863281 632.621094 L 5.582031 632.621094 Z M 532.09375 774.015625 L 480 827.96875 L 491.164062 831.691406 L 476.28125 848.433594 L 463.257812 844.714844 L 439.070312 835.410156 L 426.046875 831.691406 L 440.929688 814.945312 L 453.953125 820.527344 L 487.441406 787.039062 L 465.117188 787.039062 L 480 772.15625 L 511.628906 768.433594 Z M 215.816406 478.203125 L 161.863281 632.621094 L 316.28125 632.621094 L 370.234375 478.203125 Z M 524.652344 478.203125 L 470.699219 632.621094 L 626.976562 632.621094 L 680.929688 478.203125 Z M 1013.953125 478.203125 L 1146.046875 478.203125 L 1092.09375 632.621094 L 1246.511719 632.621094 L 1192.558594 787.039062 L 1120 787.039062 C 1120 783.320312 1120 781.457031 1120 777.738281 L 1120 774.015625 C 1118.136719 736.808594 1101.394531 703.320312 1075.347656 679.132812 L 1092.09375 632.621094 L 1041.859375 632.621094 C 1047.441406 582.390625 1047.441406 524.714844 1017.671875 481.925781 C 1015.8125 480.0625 1015.8125 478.203125 1013.953125 478.203125 Z M 89.304688 980.527344 C 76.28125 973.085938 59.535156 967.503906 52.09375 974.945312 L 13.023438 1014.015625 C 5.582031 1021.457031 5.582031 1032.621094 5.582031 1040.0625 L 0 1160.992188 C 1.863281 1181.457031 13.023438 1194.480469 39.070312 1196.339844 C 132.09375 1224.25 240 1248.433594 357.210938 1270.757812 C 420.464844 1280.0625 435.347656 1281.921875 511.628906 1272.621094 C 580.464844 1265.179688 643.722656 1255.875 643.722656 1255.875 C 682.789062 1287.503906 807.441406 1319.132812 835.347656 1218.667969 C 853.953125 1237.269531 874.417969 1239.132812 909.765625 1235.410156 C 1140.464844 1203.78125 1272.558594 1183.316406 1272.558594 1183.316406 C 1354.417969 1229.828125 1440 1183.316406 1440 1082.851562 C 1440 997.273438 1354.417969 937.738281 1268.835938 984.25 C 1207.441406 963.785156 1175.8125 954.480469 1175.8125 954.480469 C 1095.8125 930.296875 1056.742188 919.132812 1056.742188 919.132812 C 1071.628906 878.203125 1080.929688 829.832031 1084.648438 774.015625 C 1082.789062 734.945312 1054.882812 697.738281 1017.671875 684.714844 C 1019.535156 669.832031 1013.953125 654.949219 1002.789062 645.644531 C 1017.671875 560.0625 1013.953125 470.761719 907.90625 465.179688 C 848.371094 461.460938 792.558594 502.390625 792.558594 573.085938 C 792.558594 576.808594 794.417969 582.390625 796.277344 584.25 C 796.277344 608.4375 798.140625 632.621094 798.140625 656.808594 C 794.417969 669.832031 800 684.714844 811.164062 692.15625 C 786.976562 699.597656 766.511719 714.480469 755.347656 736.808594 C 731.164062 742.390625 708.835938 749.832031 686.511719 760.992188 C 617.675781 721.925781 571.164062 708.902344 550.699219 725.644531 C 496.746094 708.902344 476.28125 714.480469 440.929688 751.691406 C 386.976562 803.785156 351.628906 839.132812 351.628906 839.132812 C 342.328125 850.296875 340.464844 863.320312 344.1875 880.0625 C 346.046875 887.503906 346.046875 889.367188 340.464844 894.945312 C 293.953125 948.898438 271.628906 973.085938 271.628906 973.085938 C 258.605469 941.457031 226.976562 930.296875 195.351562 928.433594 C 148.839844 924.714844 111.628906 932.15625 89.304688 980.527344 Z M 1049.300781 720.0625 C 1034.417969 701.457031 958.140625 714.480469 917.207031 762.855469 C 941.394531 729.367188 974.882812 705.179688 1012.09375 694.015625 C 1023.253906 697.738281 1038.140625 707.039062 1049.300781 720.0625 Z M 833.488281 539.597656 C 788.835938 539.597656 857.675781 463.320312 915.347656 476.34375 C 941.394531 476.34375 961.859375 494.949219 971.164062 517.273438 C 952.558594 502.390625 926.511719 498.667969 904.1875 506.109375 C 913.488281 506.109375 922.789062 509.832031 932.09375 513.550781 C 880 504.25 872.558594 539.597656 833.488281 539.597656 Z M 803.722656 602.855469 C 803.722656 595.414062 803.722656 599.132812 805.582031 589.832031 C 835.347656 600.992188 874.417969 599.132812 917.207031 580.527344 C 932.09375 574.949219 937.675781 580.527344 933.953125 597.273438 C 933.953125 617.738281 928.371094 634.480469 917.207031 649.367188 C 920.929688 638.203125 922.789062 627.039062 924.652344 615.878906 C 928.371094 599.132812 922.789062 591.691406 906.046875 597.273438 C 868.835938 614.015625 835.347656 615.878906 803.722656 602.855469 Z M 768.371094 826.109375 C 764.652344 818.667969 760.929688 811.226562 753.488281 803.785156 C 768.371094 801.921875 790.699219 807.503906 801.859375 818.667969 C 840.929688 826.109375 878.140625 839.132812 913.488281 855.878906 C 915.347656 842.855469 924.652344 831.691406 937.675781 827.96875 C 926.511719 818.667969 932.09375 801.921875 954.417969 779.597656 C 965.582031 755.414062 987.90625 736.808594 1015.8125 736.808594 C 1051.160156 736.808594 1067.90625 749.832031 1066.046875 775.878906 C 1041.859375 811.226562 1023.253906 833.550781 1010.230469 844.714844 C 997.207031 840.992188 986.046875 837.273438 976.742188 833.550781 C 991.628906 846.574219 997.207031 857.738281 993.488281 865.179688 C 997.207031 883.785156 993.488281 896.808594 980.464844 904.25 C 967.441406 915.410156 954.417969 922.855469 941.394531 926.574219 C 939.535156 917.273438 939.535156 906.109375 943.253906 889.367188 C 933.953125 874.480469 928.371094 867.039062 928.371094 867.039062 C 928.371094 885.644531 928.371094 893.085938 928.371094 893.085938 C 896.742188 887.503906 865.117188 876.34375 835.347656 857.738281 C 811.164062 865.179688 803.722656 859.597656 809.300781 840.992188 C 785.117188 859.597656 770.234375 854.015625 768.371094 826.109375 Z M 993.488281 656.808594 C 997.207031 654.949219 999.070312 654.949219 1004.652344 660.527344 C 948.835938 712.621094 894.882812 731.226562 840.929688 718.203125 C 887.441406 723.785156 939.535156 701.457031 993.488281 656.808594 Z M 986.046875 1010.296875 C 1030.695312 995.410156 1040 960.0625 1051.160156 941.457031 C 1190.695312 980.527344 1253.953125 1000.992188 1239.070312 999.132812 C 1227.90625 1000.992188 1222.324219 1000.992188 1222.324219 1000.992188 C 1220.464844 1000.992188 1218.601562 999.132812 1216.742188 999.132812 C 1093.953125 952.621094 1023.253906 1023.320312 986.046875 1010.296875 Z M 1356.277344 1129.363281 C 1374.882812 1160.992188 1406.511719 1147.96875 1415.8125 1097.738281 C 1402.789062 1133.085938 1382.324219 1144.25 1356.277344 1129.363281 Z M 1386.042969 1014.015625 C 1352.554688 1028.898438 1332.089844 1062.386719 1335.8125 1097.738281 C 1341.394531 1034.480469 1417.671875 1015.875 1428.835938 1086.574219 C 1432.554688 1008.433594 1345.113281 950.761719 1280 991.691406 C 1296.742188 986.109375 1313.488281 986.109375 1330.230469 986.109375 C 1315.347656 991.691406 1302.324219 997.273438 1289.300781 1006.574219 C 1304.183594 1000.992188 1322.789062 997.273438 1339.535156 995.410156 C 1326.511719 1000.992188 1317.207031 1010.296875 1313.488281 1021.457031 C 1326.511719 1010.296875 1345.113281 1002.851562 1363.71875 1004.714844 C 1346.976562 1010.296875 1333.953125 1023.320312 1326.511719 1040.0625 C 1341.394531 1023.320312 1363.71875 1014.015625 1386.042969 1014.015625 Z M 941.394531 1144.25 C 1038.140625 1149.828125 1131.160156 1136.804688 1220.464844 1108.898438 C 1131.160156 1125.644531 1038.140625 1136.804688 941.394531 1144.25 Z M 997.207031 1073.550781 C 965.582031 1077.273438 935.8125 1079.132812 911.628906 1082.851562 C 868.835938 1086.574219 842.789062 1058.667969 889.300781 1053.085938 L 907.90625 1051.226562 L 1270.695312 1008.433594 C 1285.578125 1008.433594 1287.441406 1014.015625 1274.417969 1021.457031 C 1203.71875 1034.480469 1201.859375 1034.480469 1162.789062 1041.921875 C 1147.90625 1064.25 1123.71875 1075.410156 1092.09375 1079.132812 C 1064.183594 1080.992188 1032.558594 1079.132812 997.207031 1073.550781 Z M 768.371094 1229.828125 C 759.070312 1233.550781 749.765625 1235.410156 740.464844 1233.550781 C 746.046875 1237.269531 753.488281 1239.132812 760.929688 1239.132812 C 770.234375 1239.132812 779.535156 1235.410156 785.117188 1229.828125 C 796.277344 1220.527344 803.722656 1205.644531 803.722656 1188.898438 C 803.722656 1183.316406 801.859375 1177.738281 801.859375 1172.15625 C 801.859375 1188.898438 796.277344 1205.644531 785.117188 1216.804688 C 779.535156 1222.386719 773.953125 1226.109375 768.371094 1229.828125 Z M 712.558594 1118.203125 C 692.09375 1144.25 688.371094 1175.875 701.394531 1201.921875 C 692.09375 1134.945312 753.488281 1099.597656 796.277344 1129.363281 C 779.535156 1103.316406 744.1875 1092.15625 710.699219 1097.738281 C 658.605469 1105.179688 640 1147.96875 654.882812 1198.203125 C 651.164062 1166.574219 666.046875 1131.226562 695.8125 1116.339844 C 673.488281 1140.527344 669.765625 1172.15625 677.210938 1201.921875 C 677.210938 1166.574219 686.511719 1131.226562 712.558594 1118.203125 Z M 863.253906 1140.527344 C 881.859375 1144.25 898.605469 1147.96875 917.207031 1147.96875 C 898.605469 1153.550781 880 1149.828125 863.253906 1140.527344 Z M 863.253906 1123.785156 C 881.859375 1127.503906 898.605469 1129.363281 917.207031 1131.226562 C 898.605469 1134.945312 880 1133.085938 863.253906 1123.785156 Z M 863.253906 1107.039062 C 881.859375 1110.761719 898.605469 1112.621094 917.207031 1112.621094 C 898.605469 1118.203125 880 1116.339844 863.253906 1107.039062 Z M 863.253906 1090.296875 C 881.859375 1094.015625 898.605469 1095.875 917.207031 1095.875 C 898.605469 1101.457031 880 1099.597656 863.253906 1090.296875 Z M 435.347656 775.878906 C 411.164062 800.0625 385.117188 827.96875 368.371094 846.574219 C 346.046875 870.761719 373.953125 880.0625 357.210938 898.667969 C 318.140625 941.457031 279.070312 989.832031 238.140625 1040.0625 C 193.488281 1097.738281 286.511719 1080.992188 327.441406 1025.179688 L 360.929688 980.527344 L 284.652344 1027.039062 C 310.699219 993.550781 366.511719 954.480469 409.304688 930.296875 C 435.347656 915.410156 496.746094 915.410156 522.792969 887.503906 C 513.488281 893.085938 465.117188 909.832031 431.628906 904.25 C 468.835938 896.808594 502.324219 889.367188 519.070312 874.480469 C 554.417969 839.132812 561.859375 833.550781 591.628906 805.644531 C 619.535156 779.597656 569.300781 746.109375 535.8125 734.945312 C 506.046875 725.644531 489.304688 731.226562 470.699219 744.25 C 493.023438 738.667969 513.488281 746.109375 552.558594 764.714844 C 481.859375 744.25 472.558594 742.390625 435.347656 775.878906 Z M 386.976562 852.15625 C 480 896.808594 487.441406 891.226562 578.605469 788.902344 C 481.859375 876.34375 496.746094 883.785156 386.976562 852.15625 Z M 470.699219 954.480469 C 509.769531 947.039062 539.535156 928.433594 563.722656 900.527344 C 580.464844 863.320312 597.210938 839.132812 621.394531 822.390625 C 632.558594 813.085938 636.277344 807.503906 630.699219 792.621094 C 625.117188 775.878906 612.09375 759.132812 589.769531 746.109375 C 604.652344 757.273438 617.675781 777.738281 619.535156 792.621094 C 619.535156 801.921875 615.8125 809.367188 608.371094 813.085938 C 586.046875 831.691406 567.441406 857.738281 550.699219 893.085938 C 528.371094 920.992188 496.746094 937.738281 459.535156 945.179688 L 388.839844 984.25 C 373.953125 991.691406 360.929688 1000.992188 355.351562 1017.738281 L 338.605469 1062.386719 C 331.164062 1084.714844 338.605469 1088.433594 359.070312 1092.15625 L 489.304688 1118.203125 C 515.347656 1123.785156 537.675781 1121.921875 552.558594 1116.339844 C 543.257812 1118.203125 520.929688 1116.339844 494.882812 1110.761719 L 360.929688 1077.273438 C 353.488281 1075.410156 353.488281 1071.691406 353.488281 1066.109375 L 368.371094 1025.179688 C 372.09375 1014.015625 381.394531 1002.851562 396.28125 995.410156 Z M 16.746094 1177.738281 C 27.910156 1188.898438 57.675781 1194.480469 74.421875 1198.203125 C 158.140625 1220.527344 241.863281 1239.132812 349.769531 1259.597656 C 400 1267.039062 437.210938 1270.757812 500.464844 1263.316406 C 548.835938 1257.738281 599.070312 1248.433594 645.582031 1242.851562 C 625.117188 1211.226562 615.8125 1172.15625 625.117188 1134.945312 C 626.976562 1127.503906 625.117188 1121.921875 619.535156 1116.339844 C 613.953125 1112.621094 606.511719 1108.898438 600.929688 1105.179688 C 612.09375 1114.480469 613.953125 1120.0625 612.09375 1133.085938 C 606.511719 1159.132812 610.234375 1181.457031 619.535156 1205.644531 C 628.835938 1231.691406 621.394531 1235.410156 600.929688 1239.132812 L 493.023438 1254.015625 C 440.929688 1259.597656 396.28125 1255.875 344.1875 1248.433594 C 243.722656 1229.828125 154.421875 1214.945312 74.421875 1192.621094 C 59.535156 1188.898438 29.769531 1183.316406 16.746094 1177.738281 Z M 708.835938 835.410156 C 701.394531 835.410156 699.535156 831.691406 706.976562 829.832031 C 716.277344 824.25 725.582031 818.667969 733.023438 809.367188 C 736.746094 807.503906 740.464844 807.503906 742.324219 809.367188 C 746.046875 811.226562 747.90625 814.945312 746.046875 818.667969 C 751.628906 822.390625 755.347656 827.96875 755.347656 835.410156 C 760.929688 840.992188 764.652344 850.296875 760.929688 857.738281 C 747.90625 861.457031 736.746094 863.320312 727.441406 861.457031 C 721.859375 861.457031 714.417969 859.597656 708.835938 855.878906 C 699.535156 850.296875 701.394531 848.433594 714.417969 848.433594 C 720 852.15625 729.300781 852.15625 742.324219 848.433594 C 747.90625 842.855469 746.046875 840.992188 738.605469 840.992188 C 727.441406 844.714844 721.859375 846.574219 723.722656 846.574219 C 718.140625 846.574219 716.277344 844.714844 720 839.132812 C 731.164062 833.550781 738.605469 829.832031 738.605469 829.832031 C 742.324219 824.25 740.464844 822.390625 734.882812 826.109375 C 725.582031 833.550781 718.140625 837.273438 708.835938 835.410156 Z M 714.417969 798.203125 C 712.558594 801.921875 710.699219 803.785156 710.699219 803.785156 C 688.371094 783.320312 658.605469 762.855469 617.675781 744.25 C 660.464844 755.414062 692.09375 774.015625 714.417969 798.203125 Z M 394.417969 1054.945312 C 407.441406 1058.667969 422.328125 1060.527344 435.347656 1064.25 L 541.394531 937.738281 L 491.164062 1019.597656 L 615.8125 848.433594 C 623.257812 848.433594 630.699219 855.878906 630.699219 859.597656 C 550.699219 958.203125 478.140625 1043.785156 461.394531 1071.691406 C 478.140625 1077.273438 493.023438 1080.992188 504.1875 1086.574219 L 520.929688 1058.667969 C 582.324219 1032.621094 623.257812 1012.15625 645.582031 1000.992188 C 619.535156 1008.433594 606.511719 1010.296875 606.511719 1010.296875 C 643.722656 980.527344 671.628906 960.0625 692.09375 950.761719 C 703.257812 937.738281 721.859375 934.015625 746.046875 941.457031 C 788.835938 947.039062 814.882812 952.621094 827.90625 956.34375 C 850.230469 958.203125 865.117188 971.226562 870.699219 995.410156 C 872.558594 1017.738281 861.394531 1023.320312 840.929688 1010.296875 C 803.722656 1006.574219 785.117188 1002.851562 785.117188 1002.851562 C 766.511719 984.25 757.210938 974.945312 757.210938 974.945312 C 757.210938 999.132812 757.210938 1012.15625 757.210938 1012.15625 C 746.046875 991.691406 738.605469 982.386719 738.605469 982.386719 C 729.300781 1006.574219 723.722656 1019.597656 723.722656 1019.597656 C 720 1004.714844 718.140625 997.273438 718.140625 997.273438 C 703.257812 1027.039062 682.789062 1051.226562 653.023438 1069.828125 C 628.835938 1088.433594 606.511719 1097.738281 587.90625 1099.597656 C 573.023438 1095.875 554.417969 1095.875 530.234375 1101.457031 C 494.882812 1094.015625 424.1875 1077.273438 386.976562 1069.828125 C 383.257812 1060.527344 386.976562 1054.945312 394.417969 1054.945312 Z M 243.722656 1021.457031 C 247.441406 1019.597656 249.304688 1017.738281 249.304688 1017.738281 C 225.117188 1014.015625 221.398438 1012.15625 202.792969 1004.714844 C 195.351562 1004.714844 193.488281 1010.296875 193.488281 1014.015625 C 210.234375 1017.738281 225.117188 1019.597656 243.722656 1021.457031 Z M 210.234375 1064.25 C 212.09375 1062.386719 215.816406 1058.667969 215.816406 1058.667969 C 191.628906 1053.085938 180.464844 1051.226562 167.441406 1049.363281 C 165.582031 1047.503906 158.140625 1045.644531 178.605469 1030.761719 C 173.023438 1032.621094 161.863281 1036.339844 152.558594 1043.785156 C 146.976562 1049.363281 148.839844 1054.945312 154.421875 1056.808594 C 195.351562 1066.109375 204.652344 1066.109375 210.234375 1064.25 Z M 217.675781 939.597656 C 158.140625 926.574219 120.933594 934.015625 98.605469 989.832031 C 109.769531 971.226562 126.511719 956.34375 146.976562 945.179688 C 130.234375 960.0625 119.070312 980.527344 111.628906 1004.714844 C 124.652344 982.386719 148.839844 950.761719 174.886719 943.320312 C 156.28125 950.761719 126.511719 995.410156 135.816406 1032.621094 C 137.675781 989.832031 186.046875 945.179688 217.675781 939.597656 Z M 80 986.109375 C 68.839844 997.273438 65.117188 1030.761719 65.117188 1030.761719 C 63.257812 1015.875 61.398438 997.273438 61.398438 997.273438 C 44.652344 1025.179688 59.535156 1049.363281 66.976562 1054.945312 C 53.957031 1047.503906 46.511719 1038.203125 46.511719 1017.738281 C 40.933594 1040.0625 52.09375 1058.667969 66.976562 1062.386719 L 156.28125 1084.714844 C 176.746094 1090.296875 189.769531 1073.550781 199.070312 1071.691406 C 197.210938 1075.410156 191.628906 1090.296875 178.605469 1094.015625 C 148.839844 1103.316406 133.953125 1116.339844 161.863281 1127.503906 C 247.441406 1146.109375 360.929688 1177.738281 379.535156 1162.851562 C 422.328125 1131.226562 320 1121.921875 336.746094 1105.179688 L 476.28125 1131.226562 C 502.324219 1136.804688 520.929688 1133.085938 541.394531 1127.503906 C 563.722656 1121.921875 589.769531 1108.898438 595.347656 1125.644531 C 599.070312 1133.085938 597.210938 1153.550781 597.210938 1170.292969 C 597.210938 1200.0625 608.371094 1211.226562 612.09375 1220.527344 C 589.769531 1209.363281 589.769531 1147.96875 567.441406 1153.550781 C 530.234375 1164.714844 494.882812 1174.015625 466.976562 1181.457031 C 433.488281 1190.761719 409.304688 1196.339844 359.070312 1185.179688 L 68.839844 1120.0625 L 46.511719 1114.480469 C 26.046875 1110.761719 20.46875 1099.597656 20.46875 1092.15625 L 20.46875 1043.785156 C 20.46875 1027.039062 24.1875 1021.457031 29.769531 1014.015625 L 53.957031 987.96875 C 61.398438 980.527344 65.117188 984.25 80 986.109375 Z M 80 986.109375 " fill-opacity="1" fill-rule="evenodd"/></g></svg>